<svg height="188" viewBox="0 0 366 188" width="366" xmlns="http://www.w3.org/2000/svg"><path d="m127.705 99.7023a6.2314 6.2314 0 0 0 -4.9684-2.5739 7.1615 7.1615 0 0 0 0 14.31 7.3052 7.3052 0 0 0 4.5079-1.5834.2755.2755 0 0 0 .0924-.2105v-2.2322a.2543.2543 0 0 0 -.2539-.2542h-5.12a.369.369 0 0 1 -.3688-.3685v-3.3136a.3691.3691 0 0 1 .3688-.3693h9.1809v-4.9167l-2.9643 1.6233a.3776.3776 0 0 1 -.4742-.1107zm-43.0982 2.3266h5.4688a2.2555 2.2555 0 0 0 2.5453-2.2869 2.2887 2.2887 0 0 0 -2.5453-2.287h-5.4688a.339.339 0 0 0 -.339.34v3.895a.3391.3391 0 0 0 .339.3389zm22.2342 12.8293a.3034.3034 0 0 1 -.3034.3037h-4.0263a.3035.3035 0 0 1 -.304-.3037v-21.1825a.3038.3038 0 0 1 .304-.3037h4.0263a.3037.3037 0 0 1 .3034.3037zm23.1453-50.7168-39.93 29.2306h1.0308c4.1441 0 6.2646 2.6453 6.2646 5.5528a4.9736 4.9736 0 0 1 -2.765 4.6715.33.33 0 0 0 .0153.6059 5.3968 5.3968 0 0 1 3.1745 5.0465c0 3.3-2.1539 5.9132-6.33 5.9132h-11.4731a.3393.3393 0 0 1 -.34-.34v-13.821l-29.62 21.6829a.7286.7286 0 0 0 .43 1.3162h79.972a.7281.7281 0 0 0 .7274-.7282v-10.9663a12.0076 12.0076 0 0 1 -8.4076 3.2491c-6.3948 0-11.6156-4.41-11.6156-11.2715 0-6.8936 5.2208-11.2708 11.6156-11.2708a10.116 10.116 0 0 1 8.4076 4.0517v-32.3346a.7277.7277 0 0 0 -1.1573-.5877zm-45.3795 46.9367h5.6645c1.7291 0 2.7729-.9149 2.7729-2.483a2.487 2.487 0 0 0 -2.7729-2.4829h-5.6645a.3392.3392 0 0 0 -.339.34v4.2869a.3392.3392 0 0 0 .339.339zm69.7456-.661-2.4958-1.2956a.3582.3582 0 0 0 -.4612.13 6.2286 6.2286 0 0 1 -5.1189 2.8869c-4.1543 0-7.2386-3.3321-7.2386-7.874 0-4.6059 3.0843-7.8733 7.2386-7.8733a6.1674 6.1674 0 0 1 5.1175 2.8791.3558.3558 0 0 0 .4663.129l2.4769-1.3512a.3661.3661 0 0 0 .1389-.52 9.3029 9.3029 0 0 0 -8.2-4.5345c-6.2006 0-11.0161 4.5419-11.0161 11.2708 0 6.6976 4.8155 11.2715 11.0161 11.2715a9.4455 9.4455 0 0 0 8.2185-4.5906.3636.3636 0 0 0 -.1425-.5288zm13.0094 1.722c-4.2533 0-6.963-3.3978-6.963-7.874 0-4.5076 2.71-7.8733 6.963-7.8733 4.2212 0 6.9622 3.3657 6.9622 7.8733 0 4.4762-2.741 7.874-6.9622 7.874zm-2.9752-18.7637c-4.68 1.2521-7.7683 5.469-7.7683 10.89 0 6.5017 4.4424 11.2715 10.7435 11.2715a10.4152 10.4152 0 0 0 10.472-8.5776c1.7204-8.2788-5.5387-15.6993-13.4472-13.5839zm39.8546-.0212h-4.7763a.5164.5164 0 0 0 -.4809.3279l-5.7765 14.9517-5.8092-14.9532a.5172.5172 0 0 0 -.4809-.3264h-4.7774a.2566.2566 0 0 0 -.256.2564v21.2779a.2566.2566 0 0 0 .256.2564h3.3062a.2567.2567 0 0 0 .2561-.2564v-16.5685l6.6436 16.7092a.1831.1831 0 0 0 .17.1159h1.3821a.1831.1831 0 0 0 .17-.1159l6.612-16.7092v16.5687a.2562.2562 0 0 0 .2561.2564h3.3054a.2562.2562 0 0 0 .2561-.2564v-21.2781a.2562.2562 0 0 0 -.2561-.2564zm48.8233 0h-14.1252a.3936.3936 0 0 0 -.3935.3939v21.0026a.3936.3936 0 0 0 .3935.3939h14.1252a.3936.3936 0 0 0 .3935-.3939v-2.5769a.3936.3936 0 0 0 -.3935-.3939h-10.3069a.3936.3936 0 0 1 -.3936-.3939v-5.2891a.3936.3936 0 0 1 .3936-.3939h10.0792a.3945.3945 0 0 0 .3936-.3939v-2.5769a.394.394 0 0 0 -.3936-.3939h-10.0792a.3937.3937 0 0 1 -.3936-.394v-4.8309a.3937.3937 0 0 1 .3936-.394h10.3069a.394.394 0 0 0 .3935-.3939v-2.5769a.3936.3936 0 0 0 -.3935-.3939zm14.891 10.2909h-4.8636a.39.39 0 0 1 -.39-.3905v-6.1457a.39.39 0 0 1 .39-.3905h4.8636a3.4719 3.4719 0 1 1 0 6.9262zm2.9955 2.8273a6.1307 6.1307 0 0 0 4.6388-6.2906c0-4.0511-2.8384-6.8273-7.1455-6.8273h-9.1707a.39.39 0 0 0 -.39.39v21.0092a.3909.3909 0 0 0 .39.3912h3.0378a.3914.3914 0 0 0 .3906-.3912v-7.3537a.39.39 0 0 1 .39-.3905h3.2051a.39.39 0 0 1 .336.1915l4.57 7.7515a.39.39 0 0 0 .336.1923h3.5106a.39.39 0 0 0 .3317-.5958c-1.0075-1.6118-3.7739-6.037-4.6839-7.4929a.39.39 0 0 1 .2539-.584zm34.624-9.7535h10.3266a.3838.3838 0 0 0 .3834-.3845v-2.5959a.3842.3842 0 0 0 -.3834-.3845h-14.1448a.3848.3848 0 0 0 -.3841.3845v21.0215a.3844.3844 0 0 0 .3841.3846h14.1448a.3838.3838 0 0 0 .3834-.3846v-2.5958a.3836.3836 0 0 0 -.3834-.3838h-10.3266a.3844.3844 0 0 1 -.384-.3846v-5.3087a.3838.3838 0 0 1 .384-.3846h10.0982a.3839.3839 0 0 0 .3841-.3846v-2.5958a.3844.3844 0 0 0 -.3841-.3846h-10.0982a.3838.3838 0 0 1 -.384-.3845v-4.85a.3839.3839 0 0 1 .384-.3846zm-8.0978 13.6078-2.4958-1.2957a.3583.3583 0 0 0 -.4612.13 6.2287 6.2287 0 0 1 -5.1189 2.887c-4.1544 0-7.2387-3.3322-7.2387-7.8741 0-4.6059 3.0843-7.8732 7.2387-7.8732a6.167 6.167 0 0 1 5.1174 2.8791.3559.3559 0 0 0 .4663.1289l2.4769-1.3509a.3665.3665 0 0 0 .1389-.52 9.3027 9.3027 0 0 0 -8.1995-4.5344c-6.2006 0-11.0162 4.5418-11.0162 11.2707 0 6.6977 4.8156 11.2716 11.0162 11.2716a9.4466 9.4466 0 0 0 8.2185-4.5907.3637.3637 0 0 0 -.1426-.5288zm-65.0472-16.9725h-4.7763a.5161.5161 0 0 0 -.4808.3279l-5.7765 14.9517-5.8093-14.9532a.517.517 0 0 0 -.4808-.3264h-4.777a.2566.2566 0 0 0 -.2561.2564v21.2779a.2567.2567 0 0 0 .2561.2564h3.3061a.2567.2567 0 0 0 .2561-.2564v-16.5685l6.6436 16.7092a.1832.1832 0 0 0 .17.1159h1.3822a.1831.1831 0 0 0 .17-.1159l6.6108-16.7092v16.5687a.2562.2562 0 0 0 .256.2564h3.3059a.2562.2562 0 0 0 .256-.2564v-21.2781a.2561.2561 0 0 0 -.256-.2564z" fill="#34313f"/></svg>