<svg viewBox="0 0 142.57 37.62" xmlns="http://www.w3.org/2000/svg"><path d="m17.66 2.65-11.3 6.52v-8.64h-6.36v37.05h.17l17.49-10.09 17.49 10.09h.17v-24.71zm11.29 24-11.29-6.52-11.3 6.52v-10.14l11.3-6.51 11.29 6.52z" fill="#db3939"/><path d="m62.07 10.13h-6.13v-9.6h-6.37v37.05h12.5c7.16 0 12.97-5.8 12.97-12.96v-1.49c.01-7.16-5.79-12.98-12.95-12.99h-.02zm6.61 14.67c0 3.78-3.06 6.85-6.85 6.86h-5.9v-15.6h5.89c3.79 0 6.86 3.07 6.86 6.86v1.89zm34.69-14.67v14.97c0 6.86-5.56 12.42-12.42 12.42h-.83c-6.85 0-12.41-5.56-12.41-12.42v-14.97h6.36v15.35c0 3.38 2.74 6.12 6.12 6.12h.69c3.38 0 6.13-2.74 6.13-6.12v-15.36h6.35zm21.6 27.45h-6.36v-37.05h6.36zm-11.04 0h-6.37v-27.45h6.37zm.43-33.97c0 1.99-1.61 3.6-3.6 3.6s-3.6-1.61-3.6-3.6 1.59-3.61 3.58-3.61 3.61 1.61 3.61 3.6zm20.99 9.53v14.59c0 2.19 1.77 3.96 3.96 3.96h.93v5.94h-1.32c-5.47 0-9.9-4.43-9.9-9.9v-27.2h6.33v6.68h7.23v5.94l-7.23-.02z" fill="#081533"/></svg>