<svg width="32" height="32" viewBox="0 0 32 32" fill="none" xmlns="http://www.w3.org/2000/svg">
<path d="M24.5 8H26.8333C27.6732 8 28.4786 8.28095 29.0725 8.78105C29.6664 9.28115 30 9.95942 30 10.6667V22C30 22.7072 29.6664 23.3855 29.0725 23.8856C28.4786 24.3857 27.6732 24.6667 26.8333 24.6667H23.6667V30L14.1667 24.6667H11V21L14 18.5H17H20.5C22 18.5 24.5 16.5 24.5 14V8Z" fill="url(#paint0_linear_1093_45235)"/>
<path d="M7.19444 16.2857V15.5357H6.44444H4.22222C3.83869 15.5357 3.46645 15.3792 3.18862 15.0934C2.91009 14.807 2.75 14.414 2.75 14V4.28571C2.75 3.87171 2.91009 3.47876 3.18862 3.19228C3.46645 2.90651 3.83869 2.75 4.22222 2.75H19.7778C20.1613 2.75 20.5336 2.90651 20.8114 3.19228C21.0899 3.47876 21.25 3.87171 21.25 4.28571V14C21.25 14.414 21.0899 14.807 20.8114 15.0934C20.5336 15.3792 20.1613 15.5357 19.7778 15.5357H14H13.7483L13.5476 15.6875L10.5476 17.9564L7.19444 20.4924V16.2857Z" stroke="#6B6B6B" stroke-width="1.5" stroke-miterlimit="10" stroke-linecap="square"/>
<path d="M11.25 21V24.6667H14.25L23.25 30V24.6667H26.25C27.0457 24.6667 27.8087 24.3857 28.3713 23.8856C28.9339 23.3855 29.25 22.7072 29.25 22V10.6667C29.25 9.95942 28.9339 9.28115 28.3713 8.78105C27.8087 8.28095 27.0457 8 26.25 8C26.25 8 26.1716 8 25 8" stroke="#6B6B6B" stroke-width="1.5" stroke-linecap="round" stroke-linejoin="round"/>
<defs>
<linearGradient id="paint0_linear_1093_45235" x1="20.5" y1="8" x2="20.5" y2="30" gradientUnits="userSpaceOnUse">
<stop stop-color="#F9984D"/>
<stop offset="1" stop-color="#EFB563"/>
</linearGradient>
</defs>
</svg>
