<svg width="32" height="32" viewBox="0 0 32 32" fill="none" xmlns="http://www.w3.org/2000/svg">
<path d="M12 3.5H3.5V12H28.5V7H16.5L12 3.5Z" fill="url(#paint0_linear_1093_45247)"/>
<path d="M29.25 15V9.73331C29.25 8.07645 27.9069 6.73331 26.25 6.73331H17.8682C17.4141 6.73331 16.9735 6.57875 16.6188 6.29505L13.5957 3.87652C12.8864 3.30912 12.0052 3 11.0969 3H5.75C4.09315 3 2.75 4.34315 2.75 6V26.25C2.75 27.9069 4.09315 29.25 5.75 29.25H15" stroke="#6B6B6B" stroke-width="1.5"/>
<line x1="3" y1="11.75" x2="29" y2="11.75" stroke="#6B6B6B" stroke-width="1.5"/>
<path d="M29.8023 21.8728L28.0148 21.6495C27.8984 21.2154 27.7257 20.7984 27.5011 20.4091L28.6075 18.9865C28.6413 18.9431 28.658 18.8888 28.6546 18.8338C28.6511 18.7789 28.6277 18.7271 28.5888 18.6882L27.3109 17.4117C27.272 17.3728 27.2202 17.3495 27.1653 17.3461C27.1104 17.3427 27.0561 17.3594 27.0127 17.3932L25.5901 18.4997C25.2011 18.2756 24.7845 18.1033 24.3508 17.9871L24.1273 16.1985C24.1206 16.1438 24.0941 16.0934 24.0529 16.0568C24.0116 16.0202 23.9584 16 23.9033 16H22.0968C22.0418 16 21.9887 16.0201 21.9474 16.0565C21.9062 16.093 21.8796 16.1432 21.8728 16.1978L21.6493 17.9871C21.2152 18.1033 20.7984 18.276 20.4094 18.5008L18.9868 17.3944C18.9433 17.3606 18.889 17.3438 18.8341 17.3472C18.7792 17.3506 18.7274 17.374 18.6885 17.4129L17.4118 18.6891C17.3728 18.728 17.3494 18.7798 17.346 18.8347C17.3425 18.8897 17.3593 18.944 17.393 18.9874L18.4995 20.41C18.2755 20.7991 18.1033 21.2158 17.9871 21.6495L16.1985 21.8728C16.1438 21.8794 16.0934 21.9059 16.0568 21.9472C16.0203 21.9884 16.0001 22.0416 16 22.0968L16 23.9032C16.0001 23.9583 16.0202 24.0114 16.0566 24.0526C16.093 24.0939 16.1432 24.1204 16.1978 24.1272L17.9865 24.3505C18.1028 24.7846 18.2754 25.2016 18.5 25.5909L17.3935 27.0135C17.3597 27.0569 17.343 27.1112 17.3464 27.1661C17.3498 27.2211 17.3731 27.2729 17.412 27.3118L18.6894 28.5892C18.7284 28.6281 18.7801 28.6514 18.8351 28.6548C18.89 28.6582 18.9443 28.6415 18.9877 28.6077L20.4103 27.5012C20.7995 27.7257 21.2163 27.8983 21.6502 28.0147L21.8738 29.8024C21.8806 29.8568 21.9071 29.9069 21.9481 29.9432C21.9892 29.9796 22.042 29.9998 22.0969 30H23.9033C23.9584 30 24.0115 29.9799 24.0527 29.9435C24.094 29.907 24.1205 29.8568 24.1273 29.8022L24.3507 28.0147C24.7848 27.8985 25.2018 27.7257 25.591 27.501L27.0136 28.6075C27.057 28.6412 27.1113 28.658 27.1663 28.6546C27.2212 28.6512 27.273 28.6278 27.3119 28.5889L28.5893 27.3115C28.6282 27.2727 28.6516 27.2209 28.6551 27.1659C28.6585 27.111 28.6418 27.0567 28.608 27.0133L27.5016 25.5907C27.726 25.2014 27.8986 24.7844 28.015 24.3503L29.8028 24.127C29.8572 24.1201 29.9073 24.0935 29.9437 24.0524C29.98 24.0112 30.0001 23.9581 30.0001 23.9032L30.0001 22.0968C30.0001 22.0417 29.98 21.9886 29.9436 21.9474C29.9071 21.9061 29.8569 21.8796 29.8023 21.8728ZM23.0001 25.4839C22.5088 25.4839 22.0286 25.3382 21.6201 25.0653C21.2116 24.7923 20.8933 24.4044 20.7053 23.9505C20.5173 23.4967 20.4681 22.9972 20.5639 22.5154C20.6598 22.0336 20.8963 21.591 21.2437 21.2436C21.5911 20.8963 22.0337 20.6597 22.5155 20.5639C22.9973 20.468 23.4967 20.5172 23.9506 20.7052C24.4045 20.8932 24.7924 21.2116 25.0653 21.62C25.3383 22.0285 25.484 22.5087 25.484 23C25.484 23.6588 25.2223 24.2905 24.7565 24.7564C24.2906 25.2222 23.6589 25.4839 23.0001 25.4839Z" stroke="#6B6B6B" stroke-width="1.4" stroke-linecap="round" stroke-linejoin="round"/>
<defs>
<linearGradient id="paint0_linear_1093_45247" x1="16" y1="3.5" x2="16" y2="12" gradientUnits="userSpaceOnUse">
<stop stop-color="#F9984D"/>
<stop offset="1" stop-color="#EFB563"/>
</linearGradient>
</defs>
</svg>
