<?xml version="1.0" encoding="UTF-8"?><svg xmlns="http://www.w3.org/2000/svg" xmlns:xlink="http://www.w3.org/1999/xlink" viewBox="0 0 90.73 68.32"><defs><style>.cls-1{stroke-linecap:round;stroke-linejoin:round;}.cls-1,.cls-2{fill:none;stroke:#686868;}.cls-3{fill:url(#linear-gradient);opacity:.7;}.cls-3,.cls-4{isolation:isolate;}.cls-5{fill:#686868;}.cls-6{fill:#262626;mix-blend-mode:multiply;opacity:.2;}.cls-2{stroke-miterlimit:10;}</style><linearGradient id="linear-gradient" x1="34.42" y1="25.95" x2="54.34" y2="25.95" gradientUnits="userSpaceOnUse"><stop offset="0" stop-color="#ff7002"/><stop offset=".3" stop-color="#fe7304"/><stop offset=".5" stop-color="#fc7c0a"/><stop offset=".68" stop-color="#f88b15"/><stop offset=".84" stop-color="#f3a125"/><stop offset=".98" stop-color="#ecbd39"/><stop offset="1" stop-color="#ebc03b"/></linearGradient></defs><g class="cls-4"><g id="Layer_2"><g id="Layer_1-2"><g><path class="cls-6" d="M66.37,19.5V58.78c0,4.93-6.24,7.07-9.27,3.18l-1.7-2.96c3.03,3.89,9.27,1.75,9.27-3.18V16.54c0-1.82-.36-3.56-1.02-5.15,1.71,2.25,2.72,5.07,2.72,8.11Z"/><ellipse class="cls-2" cx="78.25" cy="6.09" rx="5.6" ry="5.46" transform="translate(38.26 73.62) rotate(-63.82)"/><path class="cls-2" d="M83.94,6.19c2.71,1.77,4.32,3.4,3.94,4.16-.56,1.14-5.3-.04-10.59-2.64-5.29-2.6-9.12-5.63-8.56-6.77,.38-.77,2.66-.48,5.72,.58"/><polygon class="cls-2" points="9.49 48.85 13.88 50.81 9.4 52.55 7.43 56.95 5.69 52.46 1.3 50.5 5.78 48.75 7.75 44.36 9.49 48.85"/><polygon class="cls-5" points="20.3 1.66 21.31 2.22 20.3 2.78 19.75 3.82 19.2 2.78 18.19 2.22 19.2 1.66 19.75 .62 20.3 1.66"/><polygon class="cls-5" points="81.95 34.46 82.96 35.02 81.95 35.58 81.4 36.62 80.85 35.58 79.84 35.02 80.85 34.46 81.4 33.42 81.95 34.46"/><path class="cls-2" d="M57.1,61.95l-11.9-15.31c-.42-.53-1.22-.53-1.64,0l-11.9,15.31c-3.03,3.89-9.27,1.75-9.27-3.18V19.5c0-7.41,6.01-13.42,13.42-13.42h17.14c7.41,0,13.42,6.01,13.42,13.42V58.78c0,4.93-6.24,7.07-9.27,3.18Z"/><g><path class="cls-3" d="M45.22,16.96l2.35,4.76c.14,.28,.4,.47,.71,.51l5.25,.76c.77,.11,1.08,1.06,.52,1.61l-3.8,3.7c-.22,.22-.32,.53-.27,.83l.9,5.23c.13,.77-.68,1.36-1.37,.99l-4.7-2.47c-.27-.14-.6-.14-.88,0l-4.7,2.47c-.69,.36-1.5-.22-1.37-.99l.9-5.23c.05-.31-.05-.62-.27-.83l-3.8-3.7c-.56-.54-.25-1.49,.52-1.61l5.25-.76c.31-.04,.57-.24,.71-.51l2.35-4.76c.35-.7,1.34-.7,1.69,0Z"/><path class="cls-2" d="M45.22,16.96l2.35,4.76c.14,.28,.4,.47,.71,.51l5.25,.76c.77,.11,1.08,1.06,.52,1.61l-3.8,3.7c-.22,.22-.32,.53-.27,.83l.9,5.23c.13,.77-.68,1.36-1.37,.99l-4.7-2.47c-.27-.14-.6-.14-.88,0l-4.7,2.47c-.69,.36-1.5-.22-1.37-.99l.9-5.23c.05-.31-.05-.62-.27-.83l-3.8-3.7c-.56-.54-.25-1.49,.52-1.61l5.25-.76c.31-.04,.57-.24,.71-.51l2.35-4.76c.35-.7,1.34-.7,1.69,0Z"/></g><path class="cls-1" d="M1.64,9.25c2.01,0,3.84,.81,5.16,2.13,1.31,1.32,2.13,3.14,2.13,5.16,6.21,0,11.49,3.96,13.46,9.48"/><path class="cls-1" d="M66.37,46.08c1.74,.92,2.99,2.63,3.08,5.55v1.3h5.89c8.22,0,14.89,6.67,14.89,14.89"/></g></g></g></g></svg>